<svg width="95" height="32" viewBox="0 0 95 32" fill="none" xmlns="http://www.w3.org/2000/svg">
<g clip-path="url(#clip0_2142_13640)">
<path d="M15.3138 10.6514C16.8264 12.3462 17.5827 14.4954 17.5827 17.099C17.5827 19.6988 17.3431 22.5818 15.3138 23.5766C12.9764 24.7211 11.8668 26.1534 9.51398 26.1534C7.42945 26.1534 5.7711 25.4568 4.53893 24.0637V32.0081H0V8.49254H4.16906V10.6514C5.35707 8.95654 7.13871 8.10913 9.51398 8.10913C11.8672 8.10913 13.8004 8.95654 15.3138 10.6514ZM11.7332 20.5589C12.5628 19.6884 12.9772 18.5451 12.9764 17.129C12.9764 15.6897 12.5675 14.5345 11.7498 13.6633C10.932 12.7921 9.90667 12.3569 8.67377 12.3577C7.57473 12.3398 6.51264 12.7713 5.71479 13.5597C4.88599 14.3603 4.47158 15.5385 4.47158 17.0944C4.47158 18.6296 4.88047 19.8078 5.69823 20.6291C6.0907 21.0325 6.5567 21.3497 7.06872 21.5621C7.58073 21.7745 8.12837 21.8777 8.67929 21.8657C9.24705 21.8778 9.81114 21.7681 10.3365 21.5433C10.8619 21.3185 11.3373 20.9834 11.7332 20.5589Z" fill="#4338CA"/>
<path d="M25.2283 26.12H20.6904V0H25.2283V26.12Z" fill="#4338CA"/>
<path d="M44.4386 18.1386C44.4386 20.5304 43.7158 22.4631 42.2702 23.9369C40.8246 25.4106 39.0039 26.1479 36.8082 26.1487C34.5669 26.1487 32.7234 25.4172 31.2778 23.9542C29.8322 22.4912 29.1094 20.5526 29.1094 18.1386V8.49243H33.6472V18.522C33.6472 19.5199 33.9442 20.3208 34.5382 20.9249C35.1322 21.529 35.8889 21.831 36.8082 21.831C37.2147 21.8415 37.619 21.7667 37.9972 21.6111C38.3754 21.4554 38.7198 21.2221 39.0098 20.9249C39.6038 20.3216 39.9008 19.5206 39.9008 18.522V8.49243H44.4386V18.1386Z" fill="#4338CA"/>
<path d="M69.4683 21.9348C68.3922 21.9348 67.6075 21.7318 67.1144 21.3257C66.6212 20.9197 66.3746 20.2289 66.3746 19.2533V12.4602H71.0814V8.49259H66.3746V4.14502H61.8368V8.49259H53.9668V4.14502H49.4279V8.49259H46.8057V12.4625H49.4279V19.6712C49.4279 21.8312 50.0105 23.4504 51.1757 24.5289C52.3409 25.6073 53.9782 26.1473 56.0878 26.1488C57.1425 26.1427 58.1925 26.0023 59.2146 25.7309V21.7955C58.0487 21.8892 57.3314 21.9356 57.0627 21.9348C55.9873 21.9348 55.203 21.7318 54.7099 21.3257C54.2167 20.9197 53.9701 20.2289 53.9701 19.2533V12.4602H61.8401V19.6689C61.8401 21.8289 62.4227 23.4481 63.5879 24.5266C64.7531 25.605 66.3894 26.145 68.4967 26.1465C69.551 26.1404 70.6007 26.0001 71.6224 25.7286V21.7955C70.4557 21.8892 69.7377 21.9356 69.4683 21.9348Z" fill="#4338CA"/>
<path d="M92.1134 16.8032C92.0361 14.193 89.6557 13.1004 87.8394 11.5173C86.2098 10.0965 85.173 8.05969 82.6965 8.14259C77.4697 8.30839 73.9112 12.4407 74.0581 17.3938C74.2049 22.347 78.31 26.2364 83.2276 26.0809C88.1452 25.9255 92.2591 21.761 92.1134 16.8032ZM86.1512 20.4749C85.3327 21.3569 84.307 21.7978 83.0741 21.7978C81.8191 21.7978 80.7887 21.3626 79.9827 20.4922C79.1767 19.6217 78.7718 18.5011 78.7682 17.1302C78.7682 15.76 79.173 14.6279 79.9827 13.7336C80.7923 12.8394 81.8228 12.3923 83.0741 12.3923C84.307 12.3923 85.3327 12.8452 86.1512 13.7509C86.9698 14.6567 87.379 15.7831 87.379 17.1302C87.3768 18.4773 86.9664 19.5922 86.1479 20.4749H86.1512Z" fill="#4338CA"/>
<path d="M94.3564 6.85759C94.3953 7.24225 94.3611 7.63112 94.2559 8.00201C94.1506 8.37289 93.9763 8.71852 93.743 9.01917C93.5096 9.31982 93.2218 9.56959 92.8959 9.75422C92.57 9.93885 92.2124 10.0547 91.8435 10.0952C90.2923 10.2656 88.4208 9.06707 88.7388 7.47358C89.0811 5.73271 89.7005 4.40633 91.2528 4.23593C91.6217 4.1954 91.9946 4.23109 92.3503 4.34093C92.7059 4.45077 93.0373 4.63263 93.3256 4.8761C93.6138 5.11957 93.8532 5.41988 94.0301 5.75988C94.2069 6.09987 94.3178 6.47288 94.3564 6.85759V6.85759Z" fill="#4338CA"/>
</g>
<defs>
<clipPath id="clip0_2142_13640">
<rect width="94.5116" height="32" fill="white"/>
</clipPath>
</defs>
</svg>
